# xmcd CD database file
#
# Track frame offsets:
#	150
#	13117
#	27003
#	46442
#	80971
#	96556
#	128663
#	151653
#	165418
#	185463
#
# Disc length: 2739 seconds
#
# Revision: 1
# Processed by: cddbd v1.5.1PL2 Copyright (c) Steve Scherf et al.
# Submitted via: CDex 1.51
#
DISCID=760ab10a
DTITLE=vodafone - Selected by Blue Note Tokyo
DYEAR=2003
DGENRE=Jazz
TTITLE0=I left my heart in San Francisco
TTITLE1=One O'clock jump
TTITLE2=A lady with a song
TTITLE3=Maiden voyage
TTITLE4=New York Times
TTITLE5=Captain Fingers
TTITLE6=Etupirka
TTITLE7=Les voyages
TTITLE8=Learning how to fly
TTITLE9=Until such time
EXTD=YEAR: 2003
EXTT0=
EXTT1=
EXTT2=
EXTT3=
EXTT4=
EXTT5=
EXTT6=
EXTT7=
EXTT8=
EXTT9=
PLAYORDER=
